maxAngZeroVel
version=1
nRows=141
nColumns=5
inDegrees=yes
endheader
time	/jointset/LegToGround/ankle_rz/value	/jointset/LegToGround/ankle_rz/speed	/jointset/Hip/hip_rz/value	/jointset/Hip/hip_rz/speed
      0.00000000	     15.00000000	      0.00000000	    -20.70400000	      0.00000000
      0.00397733	     14.97971251	     -9.78468453	    -20.62290043	     38.94414288
      0.00848887	     14.91557699	    -18.23672451	    -20.36977740	     71.46135375
      0.01398723	     14.79359227	    -25.68576352	    -19.89693680	     98.56577638
      0.01948559	     14.63729826	    -30.84316425	    -19.30411753	    115.67045238
      0.02498394	     14.45742508	    -34.35292966	    -18.63790957	    125.66682957
      0.03048230	     14.26169159	    -36.67752802	    -17.93136752	    130.63539617
      0.03741710	     14.00063648	    -38.42904093	    -17.01806157	    132.02456868
      0.04435190	     13.73073287	    -39.29331625	    -16.10829566	    129.90070470
      0.05128669	     13.45696713	    -39.58534855	    -15.22121066	    125.67292496
      0.06009950	     13.10838350	    -39.45056393	    -14.14355872	    118.68834268
      0.06891231	     12.76257243	    -38.98928338	    -13.13137797	    110.96095709
      0.07953120	     12.35254314	    -38.20831139	    -12.00312124	    101.57939518
      0.09015009	     11.95153669	    -37.30459052	    -10.97238899	     92.65601706
      0.09805644	     11.65940622	    -36.58819062	    -10.26457392	     86.46323294
      0.10276675	     11.48809612	    -36.14915767	     -9.86559216	     82.96115173
      0.10747706	     11.31886272	    -35.70758752	     -9.48292170	     79.53475144
      0.12034044	     10.86719095	    -34.52769807	     -8.51757787	     70.69714051
      0.13320382	     10.43026847	    -33.41793893	     -7.66019377	     62.76575127
      0.15047489	      9.86515342	    -32.04252261	     -6.65790463	     53.56876207
      0.16774596	      9.32289994	    -30.76255781	     -5.80109382	     45.88499838
      0.18503607	      8.80172371	    -29.52711159	     -5.06471508	     39.49328907
      0.19631281	      8.47327837	    -28.72365772	     -4.63988159	     35.92676980
      0.20131330	      8.33054340	    -28.36430310	     -4.46387844	     34.47820526
      0.20631379	      8.18960869	    -28.00417660	     -4.29500087	     33.07130112
      0.22041475	      7.80180571	    -27.00533773	     -3.85551159	     29.32548085
      0.23451570	      7.42780876	    -26.04767593	     -3.46603002	     25.98745308
      0.25372084	      6.93956028	    -24.80926637	     -3.00535019	     22.11155510
      0.27292598	      6.47453094	    -23.62502302	     -2.61227747	     18.92918122
      0.28950907	      6.09106527	    -22.62462680	     -2.31777854	     16.65582799
      0.30044219	      5.84729768	    -21.96776685	     -2.14288169	     15.36254675
      0.31452313	      5.54390460	    -21.12797560	     -1.93752738	     13.81915621
      0.32860408	      5.25216715	    -20.31444740	     -1.75310822	     12.40026534
      0.34894894	      4.85036872	    -19.19507087	     -1.51939108	     10.63108595
      0.36929381	      4.47073359	    -18.13330725	     -1.31838478	      9.17802837
      0.39238639	      4.06540494	    -16.97857254	     -1.12233458	      7.85366664
      0.40264813	      3.89375256	    -16.47724609	     -1.04432599	      7.35612269
      0.41290987	      3.72720439	    -15.98468628	     -0.97131026	      6.87645064
      0.43409302	      3.39901854	    -15.01145815	     -0.83555458	      5.96324951
      0.45527617	      3.09078304	    -14.10047236	     -0.71765535	      5.19230415
      0.48599242	      2.67675440	    -12.87465396	     -0.57237086	      4.31013747
      0.50124304	      2.48481633	    -12.29980400	     -0.50938454	      3.95756619
      0.52088230	      2.25027303	    -11.59256671	     -0.43586021	      3.53311182
      0.54052156	      2.02917579	    -10.93105263	     -0.37034264	      3.14770577
      0.56978167	      1.72277738	    -10.02752093	     -0.28548643	      2.67170495
      0.59949429	      1.43737753	     -9.19628295	     -0.21195376	      2.29371199
      0.61714717	      1.27911476	     -8.73915434	     -0.17322413	      2.09469712
      0.63480006	      1.12865576	     -8.31237501	     -0.13793331	      1.90659368
      0.66824221	      0.86312161	     -7.58477833	     -0.07942920	      1.60458033
      0.70168437	      0.62031965	     -6.95016215	     -0.02989821	      1.36662382
      0.72523305	      0.46140313	     -6.55386729	      0.00051467	      1.21749958
      0.74878174	      0.31131497	     -6.20014305	      0.02755117	      1.08176769
      0.79102367	      0.06116628	     -5.66316258	      0.06884567	      0.88260503
      0.81271305	     -0.05909093	     -5.43060973	      0.08704980	      0.79698137
      0.83921748	     -0.19967583	     -5.18485682	      0.10682954	      0.69757235
      0.87968328	     -0.40315630	     -4.88686553	      0.13237008	      0.56974198
      0.91437061	     -0.56921874	     -4.69747849	      0.15053690	      0.47888126
      0.94905794	     -0.72970843	     -4.56539865	      0.16569781	      0.39745475
      0.99295841	     -0.92783312	     -4.47415274	      0.18118149	      0.31105565
      1.11923222	     -1.49571038	     -4.61151360	      0.20869961	      0.13892874
      1.15865503	     -1.68029135	     -4.76045342	      0.21342102	      0.10142739
      1.21140364	     -1.93818305	     -5.03112293	      0.21756827	      0.05684448
      1.28226766	     -2.31120125	     -5.52076852	      0.21974493	      0.00703187
      1.32764078	     -2.57029352	     -5.90965604	      0.21937997	     -0.02303007
      1.37301391	     -2.84840723	     -6.35962766	      0.21772173	     -0.04971713
      1.43565268	     -3.26883717	     -7.08493909	      0.21347558	     -0.08627662
      1.48886933	     -3.66454444	     -7.80294797	      0.20809245	     -0.11535510
      1.54208598	     -4.10110790	     -8.62143765	      0.20112986	     -0.14729369
      1.59530263	     -4.58412151	     -9.55074023	      0.19246543	     -0.17753729
      1.64294092	     -5.06093813	    -10.48421791	      0.18327622	     -0.20903626
      1.69057921	     -5.58471503	    -11.52404632	      0.17257625	     -0.24022307
      1.73821750	     -6.16074170	    -12.67949550	      0.16031447	     -0.27515855
      1.80220662	     -7.02692705	    -14.43441493	      0.14110956	     -0.32497059
      1.84942264	     -7.74234368	    -15.89428048	      0.12478251	     -0.36759297
      1.89663866	     -8.53032321	    -17.51069207	      0.10638420	     -0.41212968
      1.95372008	     -9.59094703	    -19.69527784	      0.08115865	     -0.47326251
      2.01080150	    -10.78415255	    -22.16177993	      0.05225158	     -0.53965864
      2.05922259	    -11.91288516	    -24.49930759	      0.02457867	     -0.60481360
      2.10764368	    -13.16075928	    -27.08700985	     -0.00636924	     -0.67404321
      2.15606477	    -14.54046361	    -29.94858975	     -0.04086254	     -0.75193651
      2.20860952	    -16.20302463	    -33.39526820	     -0.08276814	     -0.84391821
      2.26115428	    -18.05677660	    -37.23190623	     -0.12978142	     -0.94715340
      2.30636316	    -19.82108526	    -40.87456224	     -0.17476260	     -1.04364604
      2.35157205	    -21.75771534	    -44.85950642	     -0.22430739	     -1.14910934
      2.39980276	    -24.03189333	    -49.51727603	     -0.28265322	     -1.27107283
      2.44803346	    -26.54143788	    -54.62461208	     -0.34714638	     -1.40390957
      2.49626417	    -29.30874684	    -60.21084224	     -0.41831168	     -1.54729433
      2.54449487	    -32.35755833	    -66.30181290	     -0.49666584	     -1.70151236
      2.58474474	    -35.13531959	    -71.78605898	     -0.56791797	     -1.83885882
      2.62499461	    -38.14131819	    -77.64370856	     -0.64482524	     -1.98208421
      2.66018435	    -40.96824959	    -83.07209412	     -0.71687902	     -2.11266754
      2.69537409	    -43.99120495	    -88.78369479	     -0.79358989	     -2.24646245
      2.73056383	    -47.22000655	    -94.76933021	     -0.87506178	     -2.38278821
      2.76114863	    -50.20079705	   -100.18203204	     -0.94978586	     -2.50267967
      2.79173342	    -53.34992914	   -105.77453756	     -1.02817174	     -2.62196083
      2.82231821	    -56.67259712	   -111.52596213	     -1.11018648	     -2.73956273
      2.85290301	    -60.17326524	   -117.40930775	     -1.19575563	     -2.85390165
      2.87943124	    -63.35654573	   -122.59301329	     -1.27275162	     -2.94936717
      2.90595947	    -66.67803022	   -127.82387029	     -1.35221098	     -3.03934416
      2.93248770	    -70.13856303	   -133.07045368	     -1.43397216	     -3.12253811
      2.95901592	    -73.73809165	   -138.29653632	     -1.51783417	     -3.19732127
      2.98554415	    -77.47553683	   -143.46092011	     -1.60355060	     -3.26190474
      3.00883363	    -80.86863744	   -147.90747828	     -1.68009428	     -3.30896100
      3.01116258	    -81.21361741	   -148.34625973	     -1.68780556	     -3.31313633
      3.02280732	    -82.95376648	   -150.52135036	     -1.72650043	     -3.33225686
      3.02326820	    -83.02315844	   -150.60675254	     -1.72803637	     -3.33295336
      3.02365252	    -83.08105429	   -150.67792734	     -1.72931742	     -3.33353060
      3.02398770	    -83.13156767	   -150.73996780	     -1.73043481	     -3.33403136
      3.02438498	    -83.19146944	   -150.81346818	     -1.73175950	     -3.33462173
      3.02458827	    -83.22213152	   -150.85106125	     -1.73243741	     -3.33492246
      3.02476317	    -83.24851729	   -150.87397135	     -1.73302181	     -3.36224778
      3.02493806	    -83.27490296	   -150.84290332	     -1.73362279	     -3.54430256
      3.02523080	    -83.31903111	   -150.59242904	     -1.73476819	     -4.41584715
      3.02560472	    -83.37520943	   -149.79462366	     -1.73682876	     -6.88673740
      3.02597864	    -83.43097126	   -148.34815238	     -1.74014716	    -11.18833659
      3.02644613	    -83.49970571	   -145.51050451	     -1.74717936	    -19.44676314
      3.02691362	    -83.56683270	   -141.46644664	     -1.75885189	    -31.04681374
      3.02738111	    -83.63178803	   -136.22861839	     -1.77671743	    -45.90924144
      3.02784860	    -83.69403168	   -129.88604273	     -1.80223962	    -63.73736349
      3.02831610	    -83.75308083	   -122.59215691	     -1.83669950	    -84.05403418
      3.02892415	    -83.82446044	   -112.01715269	     -1.89654422	   -113.19155959
      3.02972475	    -83.90818567	    -97.02083034	     -2.00336635	   -153.85935268
      3.03048887	    -83.97677065	    -82.54312214	     -2.13572908	   -192.29473881
      3.03125300	    -84.03451192	    -68.75824407	     -2.29652043	   -227.93296938
      3.03201713	    -84.08217763	    -56.24506665	     -2.48294133	   -259.17999196
      3.03278126	    -84.12087400	    -45.31344796	     -2.69128524	   -285.24088904
      3.03354538	    -84.15185458	    -36.04939982	     -2.91750021	   -305.97478610
      3.03430951	    -84.17637445	    -28.38245020	     -3.15761136	   -321.68959627
      3.03507364	    -84.19559625	    -22.15096800	     -3.40798722	   -332.94680882
      3.03601922	    -84.21355962	    -16.12506574	     -3.72736236	   -341.69916090
      3.03696481	    -84.22656421	    -11.60037434	     -4.05276284	   -345.88946540
      3.03812204	    -84.23753471	     -7.60284331	     -4.45375128	   -346.39687195
      3.03824761	    -84.23846967	     -7.31758711	     -4.49722123	   -345.80065497
      3.03837318	    -84.23938245	     -7.26774442	     -4.54053520	   -343.79782223
      3.03855377	    -84.24072802	     -7.75108620	     -4.60211871	   -337.49419590
      3.03873436	    -84.24222585	     -8.95808427	     -4.66215096	   -326.55604105
      3.03891495	    -84.24400546	    -10.85793134	     -4.71978034	   -310.92163224
      3.03913369	    -84.24670109	    -13.89983136	     -4.78521289	   -286.43145313
      3.03935243	    -84.25012127	    -17.41687049	     -4.84476187	   -257.45371194
      3.03963233	    -84.25563985	    -21.96933116	     -4.91122360	   -217.16648396
      3.03987016	    -84.26128255	    -25.37703365	     -4.95878332	   -182.98156750
